<svg id="Capa_1" data-name="Capa 1" xmlns="http://www.w3.org/2000/svg" viewBox="0 0 608 152"><defs><style>.cls-1{fill:#fff;}.cls-2{fill:#6dc0b9;}.cls-3{fill:#7bbe88;}.cls-4{fill:#fabe37;}.cls-5{fill:#e53254;}.cls-6{fill:#46ab99;}</style></defs><path class="cls-1" d="M207.85,56.25l-4.73,5.66a60,60,0,0,0,.67,7.7,8.68,8.68,0,0,0,2.08,4.88v.36H187.63v-.36c1.13-1.18,1.88-3.08,2.23-5.72a69.48,69.48,0,0,0,.53-9V40.49a69.37,69.37,0,0,0-.53-9c-.35-2.64-1.1-4.55-2.23-5.73v-.35h18.24v.35q-1.69,1.77-2.22,5.73a67.66,67.66,0,0,0-.53,9.05v4.87l9.19-11,1.06-1.45c.42-.59.85-1.19,1.27-1.81a11.92,11.92,0,0,0,1.06-1.84,3.88,3.88,0,0,0,.42-1.55,2.75,2.75,0,0,0-.21-1.2,4.12,4.12,0,0,0-.49-.78v-.35h18.31v.35A20.61,20.61,0,0,0,232,27.3c-.56.59-1.11,1.19-1.62,1.8L217,45.22l8.49,13.58c1,1.65,2.06,3.24,3.07,4.77s2,2.92,3,4.17a22.76,22.76,0,0,0,3,3.15,6.47,6.47,0,0,0,3,1.55v.36a10.12,10.12,0,0,1-4,2.22,15.84,15.84,0,0,1-4.17.6,22.58,22.58,0,0,1-4.57-.42,12.76,12.76,0,0,1-3.78-1.45A14.13,14.13,0,0,1,217.61,71a27.77,27.77,0,0,1-3.11-4.24Z"/><path class="cls-1" d="M261.37,25.36v.35q-1.69,1.77-2.22,5.73a67.66,67.66,0,0,0-.53,9.05V59.72a67.77,67.77,0,0,0,.53,9c.35,2.64,1.09,4.54,2.22,5.72v.36H243.13v-.36c1.13-1.18,1.88-3.08,2.23-5.72a69.48,69.48,0,0,0,.53-9V40.49a69.37,69.37,0,0,0-.53-9c-.35-2.64-1.1-4.55-2.23-5.73v-.35Z"/><path class="cls-1" d="M323,50.31a27.84,27.84,0,0,1-2.12,11.35,21.91,21.91,0,0,1-5.73,7.88,23,23,0,0,1-8.41,4.6,34.33,34.33,0,0,1-10.18,1.48h-.92a34.51,34.51,0,0,1-10.25-1.48,23,23,0,0,1-8.41-4.6,21.91,21.91,0,0,1-5.73-7.88,27.84,27.84,0,0,1-2.12-11.35V50a28.08,28.08,0,0,1,2.12-11.38A21.81,21.81,0,0,1,277,30.66a23,23,0,0,1,8.41-4.6,34.51,34.51,0,0,1,10.25-1.48h.92a34.33,34.33,0,0,1,10.18,1.48,23,23,0,0,1,8.41,4.6,21.81,21.81,0,0,1,5.73,7.92A28.08,28.08,0,0,1,323,50ZM282.3,50.1a18.37,18.37,0,0,0,.95,6,14.19,14.19,0,0,0,2.69,4.7,11.56,11.56,0,0,0,4.21,3A13.78,13.78,0,0,0,295.66,65h.92a13.56,13.56,0,0,0,5.48-1.06,11.59,11.59,0,0,0,4.17-3,14.19,14.19,0,0,0,2.69-4.7,19.61,19.61,0,0,0,0-12.06,13.71,13.71,0,0,0-2.69-4.7,12.08,12.08,0,0,0-4.17-3,13.24,13.24,0,0,0-5.48-1.1h-.92a13.45,13.45,0,0,0-5.51,1.1,12,12,0,0,0-4.21,3,13.71,13.71,0,0,0-2.69,4.7A18.43,18.43,0,0,0,282.3,50.1Z"/><path class="cls-1" d="M352.36,25.36a38.15,38.15,0,0,1,10.5,1.27,20.79,20.79,0,0,1,7.25,3.53,14,14,0,0,1,4.17,5.41,17.29,17.29,0,0,1,1.34,6.82q0,5.94-2.51,9.55a16.88,16.88,0,0,1-6.54,5.58l.78,1.28c1,1.65,2.06,3.24,3.08,4.77s2,2.92,3,4.17a22.76,22.76,0,0,0,3,3.15,6.47,6.47,0,0,0,3,1.55v.36a10.88,10.88,0,0,1-3.82,2.12,14.42,14.42,0,0,1-4.45.7,22,22,0,0,1-4.49-.42,12.66,12.66,0,0,1-3.78-1.45A14.17,14.17,0,0,1,359.5,71a27.77,27.77,0,0,1-3.11-4.24l-3.75-5.94q-1.62.13-3.18.21l-3.18.14a62.71,62.71,0,0,0,.6,8.13A9,9,0,0,0,349,74.49v.36H330.8v-.36c1.13-1.18,1.87-3.08,2.23-5.72a69.48,69.48,0,0,0,.53-9V40.49a69.37,69.37,0,0,0-.53-9q-.54-4-2.23-5.73v-.35Zm-6.08,26.58a53.94,53.94,0,0,0,5.8-.46,19.89,19.89,0,0,0,5.2-1.38A9.73,9.73,0,0,0,361,47.41,6.72,6.72,0,0,0,362.4,43a5.89,5.89,0,0,0-2.9-5.34q-2.89-1.8-8.2-1.8h-5Z"/><path class="cls-1" d="M403.48,25.36v.35c-1.13,1.18-1.88,3.09-2.23,5.73a69.37,69.37,0,0,0-.53,9.05V59.72a69.48,69.48,0,0,0,.53,9c.35,2.64,1.1,4.54,2.23,5.72v.36H385.24v-.36c1.13-1.18,1.87-3.08,2.23-5.72a69.62,69.62,0,0,0,.52-9V40.49a69.51,69.51,0,0,0-.52-9q-.54-4-2.23-5.73v-.35Z"/><path class="cls-1" d="M443.38,58.58l2-3.57a9.69,9.69,0,0,0,6,2.09c2.42,0,3.73-.67,3.73-2S453.5,53,451,52.37l-1.16-.3c-4-1.07-6.78-2.7-6.78-6.46,0-4.27,3.45-7.15,8.66-7.15A12.86,12.86,0,0,1,459.59,41l-2.33,3.7a8.74,8.74,0,0,0-5.46-1.88c-2,0-3.24.73-3.24,1.88,0,1.4,1.61,1.94,3.7,2.49l1.15.33c3.61,1,7.21,3,7.21,7s-3.57,6.91-8.91,6.91A12.66,12.66,0,0,1,443.38,58.58Z"/><path class="cls-1" d="M483.42,43.16h-6.63v18h-5.34v-18h-6.63v-4.4h18.6Z"/><path class="cls-1" d="M489.13,52.43V38.76h5.31V52.22a4.82,4.82,0,1,0,9.63,0V38.76h5.31V52.43c0,5.45-4,9.06-10.09,9.06S489.13,57.88,489.13,52.43Z"/><path class="cls-1" d="M537.69,50c0,6.72-4.45,11.24-11.15,11.24h-9.46V38.76h9.46C533.24,38.76,537.69,43.22,537.69,50Zm-5.51,0c0-4.1-2.21-6.79-5.55-6.79h-4.21V56.79h4.21C530,56.79,532.18,54,532.18,50Z"/><path class="cls-1" d="M544.37,38.76h5.34V61.19h-5.34Z"/><path class="cls-1" d="M556.35,50c0-6.92,4.85-11.52,12.12-11.52s12,4.6,12,11.52-4.84,11.51-12,11.51S556.35,56.89,556.35,50ZM575,50c0-4.28-2.64-7.13-6.55-7.13s-6.6,2.85-6.6,7.13,2.63,7.12,6.6,7.12S575,54.25,575,50Z"/><path class="cls-1" d="M586.39,58.58l2-3.57a9.69,9.69,0,0,0,6,2.09c2.42,0,3.72-.67,3.72-2S596.52,53,594,52.37l-1.15-.3c-4-1.07-6.79-2.7-6.79-6.46,0-4.27,3.46-7.15,8.67-7.15A12.86,12.86,0,0,1,602.61,41l-2.34,3.7a8.69,8.69,0,0,0-5.45-1.88c-2,0-3.24.73-3.24,1.88,0,1.4,1.61,1.94,3.69,2.49l1.16.33c3.6,1,7.21,3,7.21,7s-3.58,6.91-8.91,6.91A12.71,12.71,0,0,1,586.39,58.58Z"/><polygon class="cls-2" points="82.66 42.43 119.67 6.72 93.39 6.72 55.75 42.43 82.66 42.43"/><polygon class="cls-3" points="82.73 69.33 118.43 106.33 118.43 80.05 82.73 42.41 82.73 69.33"/><polygon class="cls-4" points="82.68 96.26 36.09 144.49 36.09 118.21 82.68 69.35 82.68 96.26"/><polygon class="cls-5" points="36.19 90.47 52.78 72.95 17 72.95 0 90.47 36.19 90.47"/><polygon class="cls-6" points="55.8 0 36.18 0 36.18 60.87 55.8 42.46 55.8 0"/></svg>